<svg id="Group_422" data-name="Group 422" xmlns="http://www.w3.org/2000/svg" width="36.881" height="39.249" viewBox="0 0 36.881 39.249">
  <path id="Icon_awesome-play" data-name="Icon awesome-play" d="M26.258,13.282,4.479.406A2.953,2.953,0,0,0,0,2.962V28.706a2.967,2.967,0,0,0,4.479,2.555L26.258,18.392a2.967,2.967,0,0,0,0-5.111Z" transform="translate(0.18 9.16) rotate(-19)" fill="#8b6ae9" opacity="0.297"/>
  <path id="Icon_awesome-play-2" data-name="Icon awesome-play" d="M26.258,13.282,4.479.406A2.953,2.953,0,0,0,0,2.962V28.706a2.967,2.967,0,0,0,4.479,2.555L26.258,18.392a2.967,2.967,0,0,0,0-5.111Z" transform="translate(10.835 0) rotate(20)" fill="#8b6ae9" opacity="0.297"/>
  <path id="Icon_awesome-play-3" data-name="Icon awesome-play" d="M26.258,13.284,4.479.409A2.953,2.953,0,0,0,0,2.964V28.709a2.967,2.967,0,0,0,4.479,2.555L26.258,18.395a2.967,2.967,0,0,0,0-5.111Z" transform="translate(4.582 3.783)" fill="#8b6ae9"/>
</svg>
