<svg id="SvgjsG4398" xmlns="http://www.w3.org/2000/svg" width="11.956" height="8.668" viewBox="0 0 11.956 8.668">
  <g id="Group_493" data-name="Group 493" transform="translate(0 0)">
    <path id="Path_14" data-name="Path 14" d="M7.187,184.72a.274.274,0,0,0-.2-.012c-.134.049.061.525-.354.476-.3-.037-.39-.915-.317-1.439a.693.693,0,0,1,.256-.22.906.906,0,0,1-.183-.1,1.714,1.714,0,0,1-.781.476l-.22.073H5.381a1.516,1.516,0,0,1-.2.049h0c-.878.2-1.074-.281-1.074-.281.11.671,1.086.488,1.086.488l.012-.024c.11.805.451,1.708,1.464,1.72.281,0,.744-.244.683-.976A.238.238,0,0,0,7.187,184.72Z" transform="translate(-4.113 -179.743)" fill="#fff"/>
    <path id="Path_15" data-name="Path 15" d="M43.021,63.444c.281.061.866-.671,1.561-1a1.782,1.782,0,0,0,.586-2.342s-.39-.866-.964-.878a5.56,5.56,0,0,0-1.452.317,2.462,2.462,0,0,0-1.025,0c-.2.012-.83.769-.83.769a5.687,5.687,0,0,0-.683,1.378c-.122.537-.451.61-.415,1.513a2.616,2.616,0,0,0,.842-.5.382.382,0,0,1,.4.073.685.685,0,0,0,.329.146h0a.591.591,0,0,0,.4-.134c.012-.012.024-.012.037-.024A1.673,1.673,0,0,0,42,62.09a.984.984,0,0,1-.024.6,3.079,3.079,0,0,0,.537-.207,3.621,3.621,0,0,1,.268-1.1,2.937,2.937,0,0,0,.256-.769,9.119,9.119,0,0,1-.256,1.244C42.57,62.724,42.741,63.383,43.021,63.444ZM41.265,61.3s0-.024.11-.073a.979.979,0,0,1,.268-.061S41.509,61.59,41.265,61.3Z" transform="translate(-38.74 -59.223)" fill="#fff"/>
    <path id="Path_16" data-name="Path 16" d="M153.662,77.131a.671.671,0,0,0,0-.659,2.723,2.723,0,0,1-.024-.683,14.558,14.558,0,0,0,0-1.793,1.336,1.336,0,0,0-.268-.769,3.582,3.582,0,0,0-1.586-1.818,17.461,17.461,0,0,0-2.354-.232,3.562,3.562,0,0,1-.878-.317,1.747,1.747,0,0,0-.4-.122,2,2,0,0,1,.476,1.391,1.82,1.82,0,0,1-.793,1.622,3.185,3.185,0,0,0-.634.4c-.293.2-.6.61-.9.659a.8.8,0,0,1-.293.012,2.611,2.611,0,0,0,.146.268c.122.207.293.549.293.549l.024-.7c.049.3.085.573.085.573a4.314,4.314,0,0,0,.22,1.378,8.125,8.125,0,0,1,.22,1.269c-.012.2-.207.293-.3.329a.41.41,0,0,0-.22.232c-.146.476,1.049.329,1.439.256.439-.085.049-.72.049-.72s.037-.939,0-1.183a7.84,7.84,0,0,1,.061-1.1,2.982,2.982,0,0,0,.256-1.513,3.724,3.724,0,0,1,.11.83,1.755,1.755,0,0,1-.171.7l.549.256a4.8,4.8,0,0,0,2.5.134c.232.427.793.708.952,1.61.049.293-.329.366-.39.732s.793.244,1.183.207.2-.61.2-.61a11.242,11.242,0,0,1-.1-2.135,6.433,6.433,0,0,0,.2-1.586,1.517,1.517,0,0,1,.061-.378,8,8,0,0,1,.049,1.086,11.831,11.831,0,0,0,.073,1.183.986.986,0,0,0,.037.939C153.552,77.424,153.564,77.338,153.662,77.131Z" transform="translate(-141.792 -70.397)" fill="#fff"/>
    <path id="Path_17" data-name="Path 17" d="M400.59,296.95l-.012-.012A.012.012,0,0,0,400.59,296.95Z" transform="translate(-388.818 -289.887)" fill="#fff"/>
    <path id="Path_18" data-name="Path 18" d="M138.744,240.2c-.085-.415-.329-.7-.232-.952,0,0-.2-.866-.2-.988l-.085-.134s-.6.891-.549,1.281.3.561.39.866-.183.561-.049.671l.207.1a.823.823,0,0,1,.268-.317C138.683,240.6,138.818,240.614,138.744,240.2Z" transform="translate(-133.718 -232.819)" fill="#fff"/>
    <path id="Path_19" data-name="Path 19" d="M277.586,269.382a2.469,2.469,0,0,1-.756,0,1.486,1.486,0,0,1,0,.671,4.248,4.248,0,0,1-.354.854s-.2.122-.171.268.366.085.769.11.329-.366.329-.366a13.612,13.612,0,0,1,.439-1.293Z" transform="translate(-268.229 -263.149)" fill="#fff"/>
  </g>
</svg>
