<svg xmlns="http://www.w3.org/2000/svg" xmlns:xlink="http://www.w3.org/1999/xlink" width="87.524" height="100.035" viewBox="0 0 87.524 100.035">
  <defs>
    <filter id="Icon_awesome-microphone-alt" x="0" y="0" width="87.524" height="100.035" filterUnits="userSpaceOnUse">
      <feOffset dy="5" input="SourceAlpha"/>
      <feGaussianBlur stdDeviation="10" result="blur"/>
      <feFlood flood-opacity="0.161"/>
      <feComposite operator="in" in2="blur"/>
      <feComposite in="SourceGraphic"/>
    </filter>
  </defs>
  <g transform="matrix(1, 0, 0, 1, 0, 0)" filter="url(#Icon_awesome-microphone-alt)">
    <path id="Icon_awesome-microphone-alt-2" data-name="Icon awesome-microphone-alt" d="M26.273,15.013H25.022a1.251,1.251,0,0,0-1.251,1.251v3.753a10.02,10.02,0,0,1-11.009,9.96A10.313,10.313,0,0,1,3.753,19.572V16.264A1.251,1.251,0,0,0,2.5,15.013H1.251A1.251,1.251,0,0,0,0,16.264V19.4c0,7.009,5,13.258,11.885,14.207v2.67H7.506a1.251,1.251,0,0,0-1.251,1.251v1.251a1.251,1.251,0,0,0,1.251,1.251H20.017a1.251,1.251,0,0,0,1.251-1.251V37.532a1.251,1.251,0,0,0-1.251-1.251H15.639V33.641A13.775,13.775,0,0,0,27.524,20.017V16.264A1.251,1.251,0,0,0,26.273,15.013ZM13.762,27.524a7.506,7.506,0,0,0,7.506-7.506H14.6c-.461,0-.834-.28-.834-.626V18.141c0-.346.374-.626.834-.626h6.672v-2.5H14.6c-.461,0-.834-.28-.834-.626V13.136c0-.346.374-.626.834-.626h6.672v-2.5H14.6c-.461,0-.834-.28-.834-.626V8.132c0-.346.374-.626.834-.626h6.672a7.506,7.506,0,0,0-15.013,0V20.017A7.506,7.506,0,0,0,13.762,27.524Z" transform="translate(30 25)" fill="#fff"/>
  </g>
</svg>
