<svg xmlns="http://www.w3.org/2000/svg" xmlns:xlink="http://www.w3.org/1999/xlink" width="82.214" height="89.674" viewBox="0 0 82.214 89.674">
  <defs>
    <filter id="Icon_awesome-podcast" x="0" y="0" width="82.214" height="89.674" filterUnits="userSpaceOnUse">
      <feOffset dy="5" input="SourceAlpha"/>
      <feGaussianBlur stdDeviation="5" result="blur"/>
      <feFlood flood-color="#0064ff" flood-opacity="0.161"/>
      <feComposite operator="in" in2="blur"/>
      <feComposite in="SourceGraphic"/>
    </filter>
  </defs>
  <g transform="matrix(1, 0, 0, 1, 0, 0)" filter="url(#Icon_awesome-podcast)">
    <path id="Icon_awesome-podcast-2" data-name="Icon awesome-podcast" d="M31.169,56.942c-.6,2.216-2.864,2.732-5.062,2.732s-4.462-.516-5.062-2.732c-.891-3.313-2.4-11.616-2.4-15.479,0-4.1,3.63-5.1,7.459-5.1s7.459,1,7.459,5.1C33.566,45.3,32.066,53.6,31.169,56.942ZM18.283,33.631a11.189,11.189,0,1,1,15.649,0A.7.7,0,0,0,34,34.7a7.754,7.754,0,0,1,2.475,2.956.7.7,0,0,0,1.1.22,16.783,16.783,0,1,0-22.948,0,.7.7,0,0,0,1.1-.22A7.753,7.753,0,0,1,18.21,34.7a.7.7,0,0,0,.073-1.071ZM26.107,0A26.115,26.115,0,0,0,14.655,49.581a.7.7,0,0,0,.995-.735c-.278-1.808-.506-3.607-.63-5.168a.7.7,0,0,0-.312-.526,20.512,20.512,0,1,1,22.513.189c-.116,1.636-.358,3.565-.655,5.5a.7.7,0,0,0,.995.735A26.115,26.115,0,0,0,26.107,0Zm0,18.648a7.459,7.459,0,1,0,7.459,7.459A7.459,7.459,0,0,0,26.107,18.648Z" transform="translate(15 10)" fill="#0064ff"/>
  </g>
</svg>
