<svg xmlns="http://www.w3.org/2000/svg" xmlns:xlink="http://www.w3.org/1999/xlink" width="45" height="53.094" viewBox="0 0 45 53.094">
  <defs>
    <filter id="Icon_awesome-pinterest-p" x="0" y="0" width="45" height="53.094" filterUnits="userSpaceOnUse">
      <feOffset dy="3" input="SourceAlpha"/>
      <feGaussianBlur stdDeviation="3" result="blur"/>
      <feFlood flood-color="#0064ff" flood-opacity="0.161"/>
      <feComposite operator="in" in2="blur"/>
      <feComposite in="SourceGraphic"/>
    </filter>
  </defs>
  <g transform="matrix(1, 0, 0, 1, 0, 0)" filter="url(#Icon_awesome-pinterest-p)">
    <path id="Icon_awesome-pinterest-p-2" data-name="Icon awesome-pinterest-p" d="M14.344.457C7.13.457,0,5.266,0,13.05,0,18,2.784,20.813,4.472,20.813c.7,0,1.1-1.941,1.1-2.489,0-.654-1.666-2.046-1.666-4.767A9.5,9.5,0,0,1,13.774,3.9c4.788,0,8.332,2.721,8.332,7.72,0,3.734-1.5,10.737-6.349,10.737a3.122,3.122,0,0,1-3.248-3.08c0-2.658,1.856-5.231,1.856-7.973,0-4.655-6.6-3.811-6.6,1.814a8.26,8.26,0,0,0,.675,3.565c-.97,4.177-2.953,10.4-2.953,14.7,0,1.329.19,2.637.316,3.966.239.267.12.239.485.105C9.83,30.6,9.7,29.651,11.306,23.3c.865,1.645,3.1,2.531,4.873,2.531C23.646,25.833,27,18.555,27,12,27,5.013,20.967.457,14.344.457Z" transform="translate(9 5.54)" fill="#27292d"/>
  </g>
</svg>
