<svg xmlns="http://www.w3.org/2000/svg" xmlns:xlink="http://www.w3.org/1999/xlink" width="52.875" height="52.875" viewBox="0 0 52.875 52.875">
  <defs>
    <filter id="Icon_awesome-user-circle" x="0" y="0" width="52.875" height="52.875" filterUnits="userSpaceOnUse">
      <feOffset dy="3" input="SourceAlpha"/>
      <feGaussianBlur stdDeviation="3" result="blur"/>
      <feFlood flood-color="#0064ff" flood-opacity="0.161"/>
      <feComposite operator="in" in2="blur"/>
      <feComposite in="SourceGraphic"/>
    </filter>
  </defs>
  <g transform="matrix(1, 0, 0, 1, 0, 0)" filter="url(#Icon_awesome-user-circle)">
    <path id="Icon_awesome-user-circle-2" data-name="Icon awesome-user-circle" d="M17.438.563A17.438,17.438,0,1,0,34.875,18,17.434,17.434,0,0,0,17.438.563Zm0,6.75A6.188,6.188,0,1,1,11.25,13.5,6.188,6.188,0,0,1,17.438,7.313Zm0,24.188a13.474,13.474,0,0,1-10.3-4.8,7.839,7.839,0,0,1,6.926-4.2,1.72,1.72,0,0,1,.5.077,9.309,9.309,0,0,0,2.876.485,9.274,9.274,0,0,0,2.876-.485,1.72,1.72,0,0,1,.5-.077,7.839,7.839,0,0,1,6.926,4.2A13.474,13.474,0,0,1,17.438,31.5Z" transform="translate(9 5.44)"/>
  </g>
</svg>
